{
  "title" : "",
  "description" : "",
  "author" : "",
  "width" : 804.0,
  "height" : 468.0,
  "version" : "2.0",
  "editRate" : 30,
  "authoringClientName" :  {
    "name" : "Camtasia",
    "platform" : "Windows",
    "version" : "18.0"
  },
  "sourceBin" : [
    {
      "id" : 1,
      "src" : "E:\\Projects\\Self\\_REAPER 教程系列\\Reaperbook\\专栏文章\\13 标齐功能 Offset\\assets\\录制日期 12-03-18.trec",
      "rect" : [0, 0, 804, 468],
      "lastMod" : "20181203T054017",
      "sourceTracks" : [
        {
          "range" : [0, 1365],
          "type" : 0,
          "editRate" : 30,
          "trackRect" : [0, 0, 804, 468],
          "sampleRate" : 28,
          "bitDepth" : 0,
          "numChannels" : 0,
          "metaData" : "录制日期 12-03-18.trec;"
        },
        {
          "range" : [0, 2008064],
          "type" : 2,
          "editRate" : 44100,
          "trackRect" : [0, 0, 0, 0],
          "sampleRate" : 44100,
          "bitDepth" : 16,
          "numChannels" : 2,
          "metaData" : ""
        },
        {
          "range" : [0, 2008064],
          "type" : 2,
          "editRate" : 44100,
          "trackRect" : [0, 0, 0, 0],
          "sampleRate" : 44100,
          "bitDepth" : 16,
          "numChannels" : 2,
          "metaData" : ""
        }
      ]
    },
    {
      "id" : 2,
      "src" : "E:\\Projects\\Self\\_REAPER 教程系列\\Reaperbook\\专栏文章\\13 标齐功能 Offset\\assets\\录制日期 12-03-18 1.trec",
      "rect" : [0, 0, 804, 468],
      "lastMod" : "20181203T060050",
      "sourceTracks" : [
        {
          "range" : [0, 1877],
          "type" : 0,
          "editRate" : 30,
          "trackRect" : [0, 0, 804, 468],
          "sampleRate" : 29,
          "bitDepth" : 0,
          "numChannels" : 0,
          "metaData" : "录制日期 12-03-18 1.trec;"
        },
        {
          "range" : [0, 2757632],
          "type" : 2,
          "editRate" : 44100,
          "trackRect" : [0, 0, 0, 0],
          "sampleRate" : 44100,
          "bitDepth" : 16,
          "numChannels" : 2,
          "metaData" : ""
        },
        {
          "range" : [0, 2757632],
          "type" : 2,
          "editRate" : 44100,
          "trackRect" : [0, 0, 0, 0],
          "sampleRate" : 44100,
          "bitDepth" : 16,
          "numChannels" : 2,
          "metaData" : ""
        }
      ]
    }
  ],
  "timeline" : {
    "id" : 3,
    "sceneTrack" : {
      "scenes" : [
        {
          "duration" : 80.8333333333333,
          "title" : "",
          "type" : "",
          "csml" : {
            "tracks" : [
              {
                "trackIndex" : 0,
                "medias" : [
                  {
                    "id" : 4,
                    "_type" : "UnifiedMedia",
                    "video" : 
                        {
                          "id" : 5,
                          "_type" : "ScreenVMFile",
                          "src" : 1,
                          "trackNumber" : 0,
                          "attributes" : {
                            "ident" : "录制日期 12-03-18"
                          },
                          "parameters" : {
                            "translation0" : {
                              "type" : "double",
                              "defaultValue" : 0.0,
                              "interp" : "eioe",
                              "keyframes" : [
                                {
                                  "time" : 59,
                                  "value" : 252.65894707718,
                                  "duration" : 30
                                },
                                {
                                  "time" : 220,
                                  "value" : 24.7771425569145,
                                  "duration" : 30
                                }
                              ]
                            },
                            "translation1" : {
                              "type" : "double",
                              "defaultValue" : 0.0,
                              "interp" : "eioe",
                              "keyframes" : [
                                {
                                  "time" : 59,
                                  "value" : 147.070113307488,
                                  "duration" : 30
                                },
                                {
                                  "time" : 220,
                                  "value" : -8.5265128291212e-14,
                                  "duration" : 30
                                }
                              ]
                            },
                            "scale0" : {
                              "type" : "double",
                              "defaultValue" : 1.0,
                              "interp" : "eioe",
                              "keyframes" : [
                                {
                                  "time" : 59,
                                  "value" : 1.62850489957343,
                                  "duration" : 30
                                },
                                {
                                  "time" : 220,
                                  "value" : 0.938365317022601,
                                  "duration" : 30
                                }
                              ]
                            },
                            "scale1" : {
                              "type" : "double",
                              "defaultValue" : 1.0,
                              "interp" : "eioe",
                              "keyframes" : [
                                {
                                  "time" : 59,
                                  "value" : 1.62850496173353,
                                  "duration" : 30
                                },
                                {
                                  "time" : 220,
                                  "value" : 0.938365352840042,
                                  "duration" : 30
                                }
                              ]
                            },
                            "cursorScale" : {
                              "type" : "double",
                              "defaultValue" : 1.0,
                              "interp" : "linr"
                            },
                            "cursorOpacity" : {
                              "type" : "double",
                              "defaultValue" : 1.0,
                              "interp" : "linr"
                            }
                          },
                          "effects" : [

                          ],
                          "start" : 0,
                          "duration" : 1303,
                          "mediaStart" : 62,
                          "mediaDuration" : 1303,
                          "scalar" : 1,
                          "animationTracks" : {
                            "visual" : [
                              {
                                "range" : [ 59, 30]
                              },
                              {
                                "range" : [ 220, 30]
                              }
                            ]
                          }
                        },
                    "audio" : 
                        {
                          "id" : 6,
                          "_type" : "AMFile",
                          "src" : 1,
                          "trackNumber" : 2,
                          "attributes" : {
                            "ident" : "",
                            "sampleRate" : 44100,
                            "bitDepth" : 16,
                            "gain" : 1.0,
                            "mixToMono" : false
                          },
                            "channelNumber" : "0,1",
                          "effects" : [

                          ],
                          "start" : 0,
                          "duration" : 1303,
                          "mediaStart" : 62,
                          "mediaDuration" : 1303,
                          "scalar" : 1,
                          "animationTracks" : {

                          }
                        }
,
                    "start" : 0,
                    "duration" : 1303,
                    "mediaStart" : 0,
                    "mediaDuration" : 1365,
                    "scalar" : 1,
                    "metadata" : {
                      "AutoAppliedSmartFocus" : "False",
                      "WinSubProjectDisplayName" : "",
                      "clipSpeedAttribute" : false,
                      "default-scale0" : 1.0,
                      "default-scale1" : 1.0,
                      "default-translation0" : 0.0,
                      "default-translation1" : 0.0
                    }
                  },
                  {
                    "id" : 7,
                    "_type" : "UnifiedMedia",
                    "video" : 
                        {
                          "id" : 8,
                          "_type" : "ScreenVMFile",
                          "src" : 2,
                          "trackNumber" : 0,
                          "attributes" : {
                            "ident" : "录制日期 12-03-18 1"
                          },
                          "parameters" : {
                            "cursorScale" : {
                              "type" : "double",
                              "defaultValue" : 1.0,
                              "interp" : "linr"
                            },
                            "cursorOpacity" : {
                              "type" : "double",
                              "defaultValue" : 1.0,
                              "interp" : "linr"
                            }
                          },
                          "effects" : [

                          ],
                          "start" : 1303,
                          "duration" : 132,
                          "mediaStart" : 595,
                          "mediaDuration" : 132,
                          "scalar" : 1,
                          "animationTracks" : {

                          }
                        },
                    "audio" : 
                        {
                          "id" : 9,
                          "_type" : "AMFile",
                          "src" : 2,
                          "trackNumber" : 2,
                          "attributes" : {
                            "ident" : "",
                            "sampleRate" : 44100,
                            "bitDepth" : 16,
                            "gain" : 1.0,
                            "mixToMono" : false
                          },
                            "channelNumber" : "0,1",
                          "effects" : [

                          ],
                          "start" : 1303,
                          "duration" : 132,
                          "mediaStart" : 595,
                          "mediaDuration" : 132,
                          "scalar" : 1,
                          "animationTracks" : {

                          }
                        }
,
                    "start" : 1303,
                    "duration" : 132,
                    "mediaStart" : 0,
                    "mediaDuration" : 1876,
                    "scalar" : 1,
                    "metadata" : {
                      "AutoAppliedSmartFocus" : "False",
                      "WinSubProjectDisplayName" : "",
                      "clipSpeedAttribute" : false
                    }
                  },
                  {
                    "id" : 10,
                    "_type" : "UnifiedMedia",
                    "video" : 
                        {
                          "id" : 11,
                          "_type" : "ScreenVMFile",
                          "src" : 2,
                          "trackNumber" : 0,
                          "attributes" : {
                            "ident" : "录制日期 12-03-18 1"
                          },
                          "parameters" : {
                            "cursorScale" : {
                              "type" : "double",
                              "defaultValue" : 1.0,
                              "interp" : "linr"
                            },
                            "cursorOpacity" : {
                              "type" : "double",
                              "defaultValue" : 1.0,
                              "interp" : "linr"
                            }
                          },
                          "effects" : [

                          ],
                          "start" : 1435,
                          "duration" : 51,
                          "mediaStart" : 727,
                          "mediaDuration" : 92,
                          "scalar" : "51/92",
                          "animationTracks" : {

                          }
                        },
                    "audio" : 
                        {
                          "id" : 12,
                          "_type" : "AMFile",
                          "src" : 2,
                          "trackNumber" : 2,
                          "attributes" : {
                            "ident" : "",
                            "sampleRate" : 44100,
                            "bitDepth" : 16,
                            "gain" : 1.0,
                            "mixToMono" : false
                          },
                            "channelNumber" : "0,1",
                          "effects" : [

                          ],
                          "start" : 1435,
                          "duration" : 51,
                          "mediaStart" : 727,
                          "mediaDuration" : 92,
                          "scalar" : "51/92",
                          "animationTracks" : {

                          }
                        }
,
                    "start" : 1435,
                    "duration" : 51,
                    "mediaStart" : 0,
                    "mediaDuration" : 1876,
                    "scalar" : "51/92",
                    "metadata" : {
                      "AutoAppliedSmartFocus" : "False",
                      "WinSubProjectDisplayName" : "",
                      "clipSpeedAttribute" : true
                    }
                  },
                  {
                    "id" : 13,
                    "_type" : "UnifiedMedia",
                    "video" : 
                        {
                          "id" : 14,
                          "_type" : "ScreenVMFile",
                          "src" : 2,
                          "trackNumber" : 0,
                          "attributes" : {
                            "ident" : "录制日期 12-03-18 1"
                          },
                          "parameters" : {
                            "cursorScale" : {
                              "type" : "double",
                              "defaultValue" : 1.0,
                              "interp" : "linr"
                            },
                            "cursorOpacity" : {
                              "type" : "double",
                              "defaultValue" : 1.0,
                              "interp" : "linr"
                            }
                          },
                          "effects" : [

                          ],
                          "start" : 1486,
                          "duration" : 144,
                          "mediaStart" : 819,
                          "mediaDuration" : 144,
                          "scalar" : 1,
                          "animationTracks" : {

                          }
                        },
                    "audio" : 
                        {
                          "id" : 15,
                          "_type" : "AMFile",
                          "src" : 2,
                          "trackNumber" : 2,
                          "attributes" : {
                            "ident" : "",
                            "sampleRate" : 44100,
                            "bitDepth" : 16,
                            "gain" : 1.0,
                            "mixToMono" : false
                          },
                            "channelNumber" : "0,1",
                          "effects" : [

                          ],
                          "start" : 1486,
                          "duration" : 144,
                          "mediaStart" : 819,
                          "mediaDuration" : 144,
                          "scalar" : 1,
                          "animationTracks" : {

                          }
                        }
,
                    "start" : 1486,
                    "duration" : 144,
                    "mediaStart" : 0,
                    "mediaDuration" : 1876,
                    "scalar" : 1,
                    "metadata" : {
                      "AutoAppliedSmartFocus" : "False",
                      "WinSubProjectDisplayName" : "",
                      "clipSpeedAttribute" : false
                    }
                  },
                  {
                    "id" : 16,
                    "_type" : "UnifiedMedia",
                    "video" : 
                        {
                          "id" : 17,
                          "_type" : "ScreenVMFile",
                          "src" : 2,
                          "trackNumber" : 0,
                          "attributes" : {
                            "ident" : "录制日期 12-03-18 1"
                          },
                          "parameters" : {
                            "cursorScale" : {
                              "type" : "double",
                              "defaultValue" : 1.0,
                              "interp" : "linr"
                            },
                            "cursorOpacity" : {
                              "type" : "double",
                              "defaultValue" : 1.0,
                              "interp" : "linr"
                            }
                          },
                          "effects" : [

                          ],
                          "start" : 1630,
                          "duration" : 54,
                          "mediaStart" : 1324,
                          "mediaDuration" : 54,
                          "scalar" : 1,
                          "animationTracks" : {

                          }
                        },
                    "audio" : 
                        {
                          "id" : 18,
                          "_type" : "AMFile",
                          "src" : 2,
                          "trackNumber" : 2,
                          "attributes" : {
                            "ident" : "",
                            "sampleRate" : 44100,
                            "bitDepth" : 16,
                            "gain" : 1.0,
                            "mixToMono" : false
                          },
                            "channelNumber" : "0,1",
                          "effects" : [

                          ],
                          "start" : 1630,
                          "duration" : 54,
                          "mediaStart" : 1324,
                          "mediaDuration" : 54,
                          "scalar" : 1,
                          "animationTracks" : {

                          }
                        }
,
                    "start" : 1630,
                    "duration" : 54,
                    "mediaStart" : 0,
                    "mediaDuration" : 1876,
                    "scalar" : 1,
                    "metadata" : {
                      "AutoAppliedSmartFocus" : "False",
                      "WinSubProjectDisplayName" : "",
                      "clipSpeedAttribute" : false
                    }
                  },
                  {
                    "id" : 19,
                    "_type" : "UnifiedMedia",
                    "video" : 
                        {
                          "id" : 20,
                          "_type" : "ScreenVMFile",
                          "src" : 2,
                          "trackNumber" : 0,
                          "attributes" : {
                            "ident" : "录制日期 12-03-18 1"
                          },
                          "parameters" : {
                            "cursorScale" : {
                              "type" : "double",
                              "defaultValue" : 1.0,
                              "interp" : "linr"
                            },
                            "cursorOpacity" : {
                              "type" : "double",
                              "defaultValue" : 1.0,
                              "interp" : "linr"
                            }
                          },
                          "effects" : [

                          ],
                          "start" : 1684,
                          "duration" : 93,
                          "mediaStart" : 1324,
                          "mediaDuration" : 93,
                          "scalar" : 1,
                          "animationTracks" : {

                          }
                        },
                    "audio" : 
                        {
                          "id" : 21,
                          "_type" : "AMFile",
                          "src" : 2,
                          "trackNumber" : 2,
                          "attributes" : {
                            "ident" : "",
                            "sampleRate" : 44100,
                            "bitDepth" : 16,
                            "gain" : 1.0,
                            "mixToMono" : false
                          },
                            "channelNumber" : "0,1",
                          "effects" : [

                          ],
                          "start" : 1684,
                          "duration" : 93,
                          "mediaStart" : 1324,
                          "mediaDuration" : 93,
                          "scalar" : 1,
                          "animationTracks" : {

                          }
                        }
,
                    "start" : 1684,
                    "duration" : 93,
                    "mediaStart" : 0,
                    "mediaDuration" : 1876,
                    "scalar" : 1,
                    "metadata" : {
                      "AutoAppliedSmartFocus" : "False",
                      "WinSubProjectDisplayName" : "",
                      "clipSpeedAttribute" : false
                    }
                  },
                  {
                    "id" : 22,
                    "_type" : "UnifiedMedia",
                    "video" : 
                        {
                          "id" : 23,
                          "_type" : "ScreenVMFile",
                          "src" : 2,
                          "trackNumber" : 0,
                          "attributes" : {
                            "ident" : "录制日期 12-03-18 1"
                          },
                          "parameters" : {
                            "cursorScale" : {
                              "type" : "double",
                              "defaultValue" : 1.0,
                              "interp" : "linr"
                            },
                            "cursorOpacity" : {
                              "type" : "double",
                              "defaultValue" : 1.0,
                              "interp" : "linr"
                            }
                          },
                          "effects" : [

                          ],
                          "start" : 1873,
                          "duration" : 104,
                          "mediaStart" : 316,
                          "mediaDuration" : 104,
                          "scalar" : 1,
                          "animationTracks" : {

                          }
                        },
                    "audio" : 
                        {
                          "id" : 24,
                          "_type" : "AMFile",
                          "src" : 2,
                          "trackNumber" : 2,
                          "attributes" : {
                            "ident" : "",
                            "sampleRate" : 44100,
                            "bitDepth" : 16,
                            "gain" : 1.0,
                            "mixToMono" : false
                          },
                            "channelNumber" : "0,1",
                          "effects" : [

                          ],
                          "start" : 1873,
                          "duration" : 104,
                          "mediaStart" : 316,
                          "mediaDuration" : 104,
                          "scalar" : 1,
                          "animationTracks" : {

                          }
                        }
,
                    "start" : 1873,
                    "duration" : 104,
                    "mediaStart" : 0,
                    "mediaDuration" : 1876,
                    "scalar" : 1,
                    "metadata" : {
                      "AutoAppliedSmartFocus" : "False",
                      "WinSubProjectDisplayName" : "",
                      "clipSpeedAttribute" : false
                    }
                  },
                  {
                    "id" : 25,
                    "_type" : "UnifiedMedia",
                    "video" : 
                        {
                          "id" : 26,
                          "_type" : "ScreenVMFile",
                          "src" : 2,
                          "trackNumber" : 0,
                          "attributes" : {
                            "ident" : "录制日期 12-03-18 1"
                          },
                          "parameters" : {
                            "cursorScale" : {
                              "type" : "double",
                              "defaultValue" : 1.0,
                              "interp" : "linr"
                            },
                            "cursorOpacity" : {
                              "type" : "double",
                              "defaultValue" : 1.0,
                              "interp" : "linr"
                            }
                          },
                          "effects" : [

                          ],
                          "start" : 2063,
                          "duration" : 90,
                          "mediaStart" : 506,
                          "mediaDuration" : 90,
                          "scalar" : 1,
                          "animationTracks" : {

                          }
                        },
                    "audio" : 
                        {
                          "id" : 27,
                          "_type" : "AMFile",
                          "src" : 2,
                          "trackNumber" : 2,
                          "attributes" : {
                            "ident" : "",
                            "sampleRate" : 44100,
                            "bitDepth" : 16,
                            "gain" : 1.0,
                            "mixToMono" : false
                          },
                            "channelNumber" : "0,1",
                          "effects" : [

                          ],
                          "start" : 2063,
                          "duration" : 90,
                          "mediaStart" : 506,
                          "mediaDuration" : 90,
                          "scalar" : 1,
                          "animationTracks" : {

                          }
                        }
,
                    "start" : 2063,
                    "duration" : 90,
                    "mediaStart" : 0,
                    "mediaDuration" : 1876,
                    "scalar" : 1,
                    "metadata" : {
                      "AutoAppliedSmartFocus" : "False",
                      "WinSubProjectDisplayName" : "",
                      "clipSpeedAttribute" : false
                    }
                  }
                ],
                "transitions" : [
                  {
                    "name" : "Pixelate",
                    "duration" : 6,
                    "trivial" : false,
                    "useAudioPreRoll" : true,
                    "useVisualPreRoll" : true,
                    "leftMedia" : 4,
                    "rightMedia" : 7
                  }
                ]
              },
              {
                "trackIndex" : 1,
                "medias" : [
                  {
                    "id" : 28,
                    "_type" : "AMFile",
                    "src" : 1,
                    "trackNumber" : 1,
                    "attributes" : {
                      "ident" : "录制日期 12-03-18",
                      "sampleRate" : 44100,
                      "bitDepth" : 16,
                      "gain" : 1.0,
                      "mixToMono" : false
                    },
                      "channelNumber" : "0,1",
                    "effects" : [

                    ],
                    "start" : 0,
                    "duration" : 1294,
                    "mediaStart" : 62,
                    "mediaDuration" : 1294,
                    "scalar" : 1,
                    "metadata" : {
                      "WinSubProjectDisplayName" : "",
                      "clipSpeedAttribute" : false
                    },
                    "animationTracks" : {

                    }
                  },
                  {
                    "id" : 29,
                    "_type" : "AMFile",
                    "src" : 2,
                    "trackNumber" : 1,
                    "attributes" : {
                      "ident" : "录制日期 12-03-18 1",
                      "sampleRate" : 44100,
                      "bitDepth" : 16,
                      "gain" : 1.0,
                      "mixToMono" : false
                    },
                      "channelNumber" : "0,1",
                    "effects" : [

                    ],
                    "start" : 1303,
                    "duration" : 132,
                    "mediaStart" : 595,
                    "mediaDuration" : 132,
                    "scalar" : 1,
                    "metadata" : {
                      "WinSubProjectDisplayName" : "",
                      "clipSpeedAttribute" : false
                    },
                    "animationTracks" : {

                    }
                  },
                  {
                    "id" : 30,
                    "_type" : "AMFile",
                    "src" : 2,
                    "trackNumber" : 1,
                    "attributes" : {
                      "ident" : "录制日期 12-03-18 1",
                      "sampleRate" : 44100,
                      "bitDepth" : 16,
                      "gain" : 1.0,
                      "mixToMono" : false
                    },
                      "channelNumber" : "0,1",
                    "effects" : [

                    ],
                    "start" : 1486,
                    "duration" : 144,
                    "mediaStart" : 819,
                    "mediaDuration" : 144,
                    "scalar" : 1,
                    "metadata" : {
                      "WinSubProjectDisplayName" : "",
                      "clipSpeedAttribute" : false
                    },
                    "animationTracks" : {

                    }
                  },
                  {
                    "id" : 31,
                    "_type" : "AMFile",
                    "src" : 2,
                    "trackNumber" : 1,
                    "attributes" : {
                      "ident" : "录制日期 12-03-18 1",
                      "sampleRate" : 44100,
                      "bitDepth" : 16,
                      "gain" : 1.0,
                      "mixToMono" : false
                    },
                      "channelNumber" : "0,1",
                    "effects" : [

                    ],
                    "start" : 1630,
                    "duration" : 54,
                    "mediaStart" : 1324,
                    "mediaDuration" : 54,
                    "scalar" : 1,
                    "metadata" : {
                      "WinSubProjectDisplayName" : "",
                      "clipSpeedAttribute" : false
                    },
                    "animationTracks" : {

                    }
                  },
                  {
                    "id" : 32,
                    "_type" : "AMFile",
                    "src" : 2,
                    "trackNumber" : 1,
                    "attributes" : {
                      "ident" : "录制日期 12-03-18 1",
                      "sampleRate" : 44100,
                      "bitDepth" : 16,
                      "gain" : 1.0,
                      "mixToMono" : false
                    },
                      "channelNumber" : "0,1",
                    "effects" : [

                    ],
                    "start" : 1684,
                    "duration" : 93,
                    "mediaStart" : 1324,
                    "mediaDuration" : 93,
                    "scalar" : 1,
                    "metadata" : {
                      "WinSubProjectDisplayName" : "",
                      "clipSpeedAttribute" : false
                    },
                    "animationTracks" : {

                    }
                  },
                  {
                    "id" : 33,
                    "_type" : "AMFile",
                    "src" : 2,
                    "trackNumber" : 1,
                    "attributes" : {
                      "ident" : "录制日期 12-03-18 1",
                      "sampleRate" : 44100,
                      "bitDepth" : 16,
                      "gain" : 1.0,
                      "mixToMono" : false
                    },
                      "channelNumber" : "0,1",
                    "effects" : [

                    ],
                    "start" : 1873,
                    "duration" : 104,
                    "mediaStart" : 316,
                    "mediaDuration" : 104,
                    "scalar" : 1,
                    "metadata" : {
                      "WinSubProjectDisplayName" : "",
                      "clipSpeedAttribute" : false
                    },
                    "animationTracks" : {

                    }
                  },
                  {
                    "id" : 34,
                    "_type" : "AMFile",
                    "src" : 2,
                    "trackNumber" : 1,
                    "attributes" : {
                      "ident" : "录制日期 12-03-18 1",
                      "sampleRate" : 44100,
                      "bitDepth" : 16,
                      "gain" : 1.0,
                      "mixToMono" : false
                    },
                      "channelNumber" : "0,1",
                    "effects" : [

                    ],
                    "start" : 2063,
                    "duration" : 90,
                    "mediaStart" : 506,
                    "mediaDuration" : 90,
                    "scalar" : 1,
                    "metadata" : {
                      "WinSubProjectDisplayName" : "",
                      "clipSpeedAttribute" : false
                    },
                    "animationTracks" : {

                    }
                  }
                ]
              },
              {
                "trackIndex" : 2,
                "medias" : [
                  {
                    "id" : 35,
                    "_type" : "Callout",
                    "def" : {
                      "kind" : "remix",
                      "shape" : "shape-rectangle",
                      "style" : "basic",
                      "fill-color-blue" : 0.0,
                      "fill-color-green" : 0.0,
                      "fill-color-opacity" : 0.566666666666668,
                      "fill-color-red" : 0.0,
                      "height" : 136.00000000006,
                      "stroke-color-blue" : 1.0,
                      "stroke-color-green" : 1.0,
                      "stroke-color-opacity" : 1.0,
                      "stroke-color-red" : 1.0,
                      "stroke-width" : 0.0,
                      "width" : 1013.00000000003,
                      "fill-style" : "solid",
                      "horizontal-alignment" : "center",
                      "stroke-style" : "solid",
                      "vertical-alignment" : "center",
                      "textAttributes" : {
                        "type" : "textAttributeList",
                        "keyframes" : [
                          {
                            "time" : 0,
                            "value" : null,
                            "duration" : 0
                          }
                        ]
                      }
                    },
                    "attributes" : {
                      "autoRotateText" : true
                    },
                    "parameters" : {
                      "translation0" : 18.4999999998083,
                      "translation1" : 177.999999999902
                    },
                    "effects" : [
                        {
                          "effectName" : "DropShadow",
                          "category" : "categoryVisualEffects",
                          "parameters" : {
                            "angle" : 5.49778714378214,
                            "blur" : 10.0,
                            "color-alpha" : 1.0,
                            "color-blue" : 0.1216,
                            "color-green" : 0.1216,
                            "color-red" : 0.1216,
                            "enabled" : 1,
                            "offset" : 10.0,
                            "opacity" : 0.4
                          }
                        }
                    ],
                    "start" : 0,
                    "duration" : 235,
                    "mediaStart" : 0,
                    "mediaDuration" : 235,
                    "scalar" : 1,
                    "metadata" : {
                      "WinSubProjectDisplayName" : "",
                      "clipSpeedAttribute" : false,
                      "default-fill-color-opacity" : 1.0,
                      "default-scale0" : 1.0,
                      "default-scale1" : 1.0,
                      "default-stroke-color-opacity" : 1.0,
                      "default-translation0" : 0.0,
                      "default-translation1" : 0.0
                    },
                    "animationTracks" : {

                    }
                  },
                  {
                    "id" : 36,
                    "_type" : "Callout",
                    "def" : {
                      "kind" : "remix",
                      "shape" : "shape-rectangle",
                      "style" : "basic",
                      "fill-color-blue" : 0.0,
                      "fill-color-green" : 0.0,
                      "fill-color-opacity" : 0.566666666666668,
                      "fill-color-red" : 0.0,
                      "height" : 218.000000000045,
                      "stroke-color-blue" : 1.0,
                      "stroke-color-green" : 1.0,
                      "stroke-color-opacity" : 1.0,
                      "stroke-color-red" : 1.0,
                      "stroke-width" : 0.0,
                      "width" : 1013.00000000003,
                      "fill-style" : "solid",
                      "horizontal-alignment" : "center",
                      "stroke-style" : "solid",
                      "vertical-alignment" : "center",
                      "textAttributes" : {
                        "type" : "textAttributeList",
                        "keyframes" : [
                          {
                            "time" : 0,
                            "value" : null,
                            "duration" : 0
                          }
                        ]
                      }
                    },
                    "attributes" : {
                      "autoRotateText" : true
                    },
                    "parameters" : {
                      "translation0" : 1.10130571329137e-10,
                      "translation1" : -153.0774925648
                    },
                    "effects" : [
                        {
                          "effectName" : "DropShadow",
                          "category" : "categoryVisualEffects",
                          "parameters" : {
                            "angle" : 5.49778714378214,
                            "blur" : 10.0,
                            "color-alpha" : 1.0,
                            "color-blue" : 0.1216,
                            "color-green" : 0.1216,
                            "color-red" : 0.1216,
                            "enabled" : 1,
                            "offset" : 10.0,
                            "opacity" : 0.4
                          }
                        }
                    ],
                    "start" : 357,
                    "duration" : 118,
                    "mediaStart" : -21,
                    "mediaDuration" : 118,
                    "scalar" : 1,
                    "metadata" : {
                      "WinSubProjectDisplayName" : "",
                      "clipSpeedAttribute" : false,
                      "default-fill-color-opacity" : 1.0,
                      "default-scale0" : 1.0,
                      "default-scale1" : 1.0,
                      "default-stroke-color-opacity" : 1.0,
                      "default-translation0" : 0.0,
                      "default-translation1" : 0.0
                    },
                    "animationTracks" : {

                    }
                  },
                  {
                    "id" : 37,
                    "_type" : "Callout",
                    "def" : {
                      "kind" : "remix",
                      "shape" : "shape-rectangle",
                      "style" : "basic",
                      "fill-color-blue" : 0.0,
                      "fill-color-green" : 0.0,
                      "fill-color-opacity" : 0.566666666666668,
                      "fill-color-red" : 0.0,
                      "height" : 164.000000000103,
                      "stroke-color-blue" : 1.0,
                      "stroke-color-green" : 1.0,
                      "stroke-color-opacity" : 1.0,
                      "stroke-color-red" : 1.0,
                      "stroke-width" : 0.0,
                      "width" : 1013.00000000003,
                      "fill-style" : "solid",
                      "horizontal-alignment" : "center",
                      "stroke-style" : "solid",
                      "vertical-alignment" : "center",
                      "textAttributes" : {
                        "type" : "textAttributeList",
                        "keyframes" : [
                          {
                            "time" : 0,
                            "value" : null,
                            "duration" : 0
                          }
                        ]
                      }
                    },
                    "attributes" : {
                      "autoRotateText" : true
                    },
                    "parameters" : {
                      "translation0" : 18.4999999998083,
                      "translation1" : 163.99999999988
                    },
                    "effects" : [
                        {
                          "effectName" : "DropShadow",
                          "category" : "categoryVisualEffects",
                          "parameters" : {
                            "angle" : 5.49778714378214,
                            "blur" : 10.0,
                            "color-alpha" : 1.0,
                            "color-blue" : 0.1216,
                            "color-green" : 0.1216,
                            "color-red" : 0.1216,
                            "enabled" : 1,
                            "offset" : 10.0,
                            "opacity" : 0.4
                          }
                        }
                    ],
                    "start" : 524,
                    "duration" : 316,
                    "mediaStart" : 0,
                    "mediaDuration" : 316,
                    "scalar" : 1,
                    "metadata" : {
                      "WinSubProjectDisplayName" : "",
                      "clipSpeedAttribute" : false,
                      "default-fill-color-opacity" : 1.0,
                      "default-scale0" : 1.0,
                      "default-scale1" : 1.0,
                      "default-stroke-color-opacity" : 1.0,
                      "default-translation0" : 0.0,
                      "default-translation1" : 0.0
                    },
                    "animationTracks" : {

                    }
                  },
                  {
                    "id" : 38,
                    "_type" : "Callout",
                    "def" : {
                      "kind" : "remix",
                      "shape" : "shape-rectangle",
                      "style" : "basic",
                      "fill-color-blue" : 0.0,
                      "fill-color-green" : 0.0,
                      "fill-color-opacity" : 0.566666666666668,
                      "fill-color-red" : 0.0,
                      "height" : 164.000000000103,
                      "stroke-color-blue" : 1.0,
                      "stroke-color-green" : 1.0,
                      "stroke-color-opacity" : 1.0,
                      "stroke-color-red" : 1.0,
                      "stroke-width" : 0.0,
                      "width" : 1013.00000000003,
                      "fill-style" : "solid",
                      "horizontal-alignment" : "center",
                      "stroke-style" : "solid",
                      "vertical-alignment" : "center",
                      "textAttributes" : {
                        "type" : "textAttributeList",
                        "keyframes" : [
                          {
                            "time" : 0,
                            "value" : null,
                            "duration" : 0
                          }
                        ]
                      }
                    },
                    "attributes" : {
                      "autoRotateText" : true
                    },
                    "parameters" : {
                      "translation0" : 18.4999999998083,
                      "translation1" : 163.99999999988
                    },
                    "effects" : [
                        {
                          "effectName" : "DropShadow",
                          "category" : "categoryVisualEffects",
                          "parameters" : {
                            "angle" : 5.49778714378214,
                            "blur" : 10.0,
                            "color-alpha" : 1.0,
                            "color-blue" : 0.1216,
                            "color-green" : 0.1216,
                            "color-red" : 0.1216,
                            "enabled" : 1,
                            "offset" : 10.0,
                            "opacity" : 0.4
                          }
                        }
                    ],
                    "start" : 950,
                    "duration" : 134,
                    "mediaStart" : 10,
                    "mediaDuration" : 134,
                    "scalar" : 1,
                    "metadata" : {
                      "WinSubProjectDisplayName" : "",
                      "clipSpeedAttribute" : false,
                      "default-fill-color-opacity" : 1.0,
                      "default-scale0" : 1.0,
                      "default-scale1" : 1.0,
                      "default-stroke-color-opacity" : 1.0,
                      "default-translation0" : 0.0,
                      "default-translation1" : 0.0
                    },
                    "animationTracks" : {

                    }
                  },
                  {
                    "id" : 39,
                    "_type" : "Callout",
                    "def" : {
                      "kind" : "remix",
                      "shape" : "shape-rectangle",
                      "style" : "basic",
                      "fill-color-blue" : 0.0,
                      "fill-color-green" : 0.0,
                      "fill-color-opacity" : 0.566666666666668,
                      "fill-color-red" : 0.0,
                      "height" : 164.000000000103,
                      "stroke-color-blue" : 1.0,
                      "stroke-color-green" : 1.0,
                      "stroke-color-opacity" : 1.0,
                      "stroke-color-red" : 1.0,
                      "stroke-width" : 0.0,
                      "width" : 1013.00000000003,
                      "fill-style" : "solid",
                      "horizontal-alignment" : "center",
                      "stroke-style" : "solid",
                      "vertical-alignment" : "center",
                      "textAttributes" : {
                        "type" : "textAttributeList",
                        "keyframes" : [
                          {
                            "time" : 0,
                            "value" : null,
                            "duration" : 0
                          }
                        ]
                      }
                    },
                    "attributes" : {
                      "autoRotateText" : true
                    },
                    "parameters" : {
                      "translation0" : 18.4999999998083,
                      "translation1" : 163.99999999988
                    },
                    "effects" : [
                        {
                          "effectName" : "DropShadow",
                          "category" : "categoryVisualEffects",
                          "parameters" : {
                            "angle" : 5.49778714378214,
                            "blur" : 10.0,
                            "color-alpha" : 1.0,
                            "color-blue" : 0.1216,
                            "color-green" : 0.1216,
                            "color-red" : 0.1216,
                            "enabled" : 1,
                            "offset" : 10.0,
                            "opacity" : 0.4
                          }
                        }
                    ],
                    "start" : 1175,
                    "duration" : 70,
                    "mediaStart" : 43,
                    "mediaDuration" : 70,
                    "scalar" : 1,
                    "metadata" : {
                      "WinSubProjectDisplayName" : "",
                      "clipSpeedAttribute" : false,
                      "default-fill-color-opacity" : 1.0,
                      "default-scale0" : 1.0,
                      "default-scale1" : 1.0,
                      "default-stroke-color-opacity" : 1.0,
                      "default-translation0" : 0.0,
                      "default-translation1" : 0.0
                    },
                    "animationTracks" : {

                    }
                  },
                  {
                    "id" : 40,
                    "_type" : "Callout",
                    "def" : {
                      "kind" : "remix",
                      "shape" : "shape-rectangle",
                      "style" : "basic",
                      "fill-color-blue" : 0.0,
                      "fill-color-green" : 0.0,
                      "fill-color-opacity" : 0.566666666666668,
                      "fill-color-red" : 0.0,
                      "height" : 164.000000000103,
                      "stroke-color-blue" : 1.0,
                      "stroke-color-green" : 1.0,
                      "stroke-color-opacity" : 1.0,
                      "stroke-color-red" : 1.0,
                      "stroke-width" : 0.0,
                      "width" : 1013.00000000003,
                      "fill-style" : "solid",
                      "horizontal-alignment" : "center",
                      "stroke-style" : "solid",
                      "vertical-alignment" : "center",
                      "textAttributes" : {
                        "type" : "textAttributeList",
                        "keyframes" : [
                          {
                            "time" : 0,
                            "value" : null,
                            "duration" : 0
                          }
                        ]
                      }
                    },
                    "attributes" : {
                      "autoRotateText" : true
                    },
                    "parameters" : {
                      "translation0" : 18.4999999998083,
                      "translation1" : 163.99999999988
                    },
                    "effects" : [
                        {
                          "effectName" : "DropShadow",
                          "category" : "categoryVisualEffects",
                          "parameters" : {
                            "angle" : 5.49778714378214,
                            "blur" : 10.0,
                            "color-alpha" : 1.0,
                            "color-blue" : 0.1216,
                            "color-green" : 0.1216,
                            "color-red" : 0.1216,
                            "enabled" : 1,
                            "offset" : 10.0,
                            "opacity" : 0.4
                          }
                        }
                    ],
                    "start" : 1329,
                    "duration" : 134,
                    "mediaStart" : 10,
                    "mediaDuration" : 134,
                    "scalar" : 1,
                    "metadata" : {
                      "WinSubProjectDisplayName" : "",
                      "clipSpeedAttribute" : false,
                      "default-fill-color-opacity" : 1.0,
                      "default-scale0" : 1.0,
                      "default-scale1" : 1.0,
                      "default-stroke-color-opacity" : 1.0,
                      "default-translation0" : 0.0,
                      "default-translation1" : 0.0
                    },
                    "animationTracks" : {

                    }
                  },
                  {
                    "id" : 41,
                    "_type" : "Callout",
                    "def" : {
                      "kind" : "remix",
                      "shape" : "shape-rectangle",
                      "style" : "basic",
                      "fill-color-blue" : 0.0,
                      "fill-color-green" : 0.0,
                      "fill-color-opacity" : 0.566666666666668,
                      "fill-color-red" : 0.0,
                      "height" : 164.000000000103,
                      "stroke-color-blue" : 1.0,
                      "stroke-color-green" : 1.0,
                      "stroke-color-opacity" : 1.0,
                      "stroke-color-red" : 1.0,
                      "stroke-width" : 0.0,
                      "width" : 1013.00000000003,
                      "fill-style" : "solid",
                      "horizontal-alignment" : "center",
                      "stroke-style" : "solid",
                      "vertical-alignment" : "center",
                      "textAttributes" : {
                        "type" : "textAttributeList",
                        "keyframes" : [
                          {
                            "time" : 0,
                            "value" : null,
                            "duration" : 0
                          }
                        ]
                      }
                    },
                    "attributes" : {
                      "autoRotateText" : true
                    },
                    "parameters" : {
                      "translation0" : 18.4999999998083,
                      "translation1" : 164.999999999855
                    },
                    "effects" : [
                        {
                          "effectName" : "DropShadow",
                          "category" : "categoryVisualEffects",
                          "parameters" : {
                            "angle" : 5.49778714378214,
                            "blur" : 10.0,
                            "color-alpha" : 1.0,
                            "color-blue" : 0.1216,
                            "color-green" : 0.1216,
                            "color-red" : 0.1216,
                            "enabled" : 1,
                            "offset" : 10.0,
                            "opacity" : 0.4
                          }
                        }
                    ],
                    "start" : 1779,
                    "duration" : 134,
                    "mediaStart" : 10,
                    "mediaDuration" : 134,
                    "scalar" : 1,
                    "metadata" : {
                      "WinSubProjectDisplayName" : "",
                      "clipSpeedAttribute" : false,
                      "default-fill-color-opacity" : 1.0,
                      "default-scale0" : 1.0,
                      "default-scale1" : 1.0,
                      "default-stroke-color-opacity" : 1.0,
                      "default-translation0" : 0.0,
                      "default-translation1" : 0.0
                    },
                    "animationTracks" : {

                    }
                  },
                  {
                    "id" : 42,
                    "_type" : "UnifiedMedia",
                    "video" : 
                        {
                          "id" : 43,
                          "_type" : "ScreenVMFile",
                          "src" : 2,
                          "trackNumber" : 0,
                          "attributes" : {
                            "ident" : "录制日期 12-03-18 1"
                          },
                          "parameters" : {
                            "cursorScale" : {
                              "type" : "double",
                              "defaultValue" : 1.0,
                              "interp" : "linr"
                            },
                            "cursorOpacity" : {
                              "type" : "double",
                              "defaultValue" : 1.0,
                              "interp" : "linr"
                            }
                          },
                          "effects" : [

                          ],
                          "start" : 2288,
                          "duration" : 137,
                          "mediaStart" : 1739,
                          "mediaDuration" : 137,
                          "scalar" : 1,
                          "animationTracks" : {

                          }
                        },
                    "audio" : 
                        {
                          "id" : 44,
                          "_type" : "AMFile",
                          "src" : 2,
                          "trackNumber" : 2,
                          "attributes" : {
                            "ident" : "",
                            "sampleRate" : 44100,
                            "bitDepth" : 16,
                            "gain" : 1.0,
                            "mixToMono" : false
                          },
                            "channelNumber" : "0,1",
                          "effects" : [

                          ],
                          "start" : 2288,
                          "duration" : 137,
                          "mediaStart" : 1739,
                          "mediaDuration" : 137,
                          "scalar" : 1,
                          "animationTracks" : {

                          }
                        }
,
                    "start" : 2288,
                    "duration" : 137,
                    "mediaStart" : 0,
                    "mediaDuration" : 1876,
                    "scalar" : 1,
                    "metadata" : {
                      "AutoAppliedSmartFocus" : "False",
                      "WinSubProjectDisplayName" : "",
                      "clipSpeedAttribute" : false
                    }
                  }
                ],
                "transitions" : [
                  {
                    "name" : "Fade",
                    "duration" : 30,
                    "trivial" : false,
                    "useAudioPreRoll" : true,
                    "useVisualPreRoll" : true,
                    "rightMedia" : 36
                  },
                  {
                    "name" : "Fade",
                    "duration" : 30,
                    "trivial" : false,
                    "useAudioPreRoll" : true,
                    "useVisualPreRoll" : true,
                    "leftMedia" : 36
                  },
                  {
                    "name" : "Fade",
                    "duration" : 30,
                    "trivial" : false,
                    "useAudioPreRoll" : true,
                    "useVisualPreRoll" : true,
                    "rightMedia" : 38
                  },
                  {
                    "name" : "Fade",
                    "duration" : 30,
                    "trivial" : false,
                    "useAudioPreRoll" : true,
                    "useVisualPreRoll" : true,
                    "leftMedia" : 38
                  },
                  {
                    "name" : "Fade",
                    "duration" : 30,
                    "trivial" : false,
                    "useAudioPreRoll" : true,
                    "useVisualPreRoll" : true,
                    "rightMedia" : 39
                  },
                  {
                    "name" : "Fade",
                    "duration" : 30,
                    "trivial" : false,
                    "useAudioPreRoll" : true,
                    "useVisualPreRoll" : true,
                    "leftMedia" : 39
                  },
                  {
                    "name" : "Fade",
                    "duration" : 30,
                    "trivial" : false,
                    "useAudioPreRoll" : true,
                    "useVisualPreRoll" : true,
                    "rightMedia" : 40
                  },
                  {
                    "name" : "Fade",
                    "duration" : 30,
                    "trivial" : false,
                    "useAudioPreRoll" : true,
                    "useVisualPreRoll" : true,
                    "leftMedia" : 40
                  },
                  {
                    "name" : "Fade",
                    "duration" : 30,
                    "trivial" : false,
                    "useAudioPreRoll" : true,
                    "useVisualPreRoll" : true,
                    "rightMedia" : 41
                  },
                  {
                    "name" : "Fade",
                    "duration" : 30,
                    "trivial" : false,
                    "useAudioPreRoll" : true,
                    "useVisualPreRoll" : true,
                    "leftMedia" : 41
                  }
                ]
              },
              {
                "trackIndex" : 3,
                "medias" : [
                  {
                    "id" : 45,
                    "_type" : "Callout",
                    "def" : {
                      "kind" : "remix",
                      "shape" : "text",
                      "style" : "basic",
                      "height" : 90.0000000000317,
                      "width" : 740.000000000049,
                      "word-wrap" : 1.0,
                      "horizontal-alignment" : "center",
                      "text" : "在 Item 左下角找到吸附偏移标记",
                      "vertical-alignment" : "center",
                      "font" : {
                        "color-blue" : 1.0,
                        "color-green" : 1.0,
                        "color-red" : 1.0,
                        "size" : 96.0,
                        "tracking" : 0.0,
                        "name" : "Montserrat",
                        "weight" : "Regular"
                      },
                      "textAttributes" : {
                        "type" : "textAttributeList",
                        "keyframes" : [
                          {
                            "time" : 0,
                            "value" : [{"name":"fontName","rangeEnd":4,"rangeStart":0,"value":"Microsoft YaHei","valueType":"string"},{"name":"fontName","rangeEnd":42,"rangeStart":9,"value":"Microsoft YaHei","valueType":"string"},{"name":"fontName","rangeEnd":9,"rangeStart":4,"value":"Montserrat","valueType":"string"},{"name":"underline","rangeEnd":42,"rangeStart":0,"value":0,"valueType":"int"},{"name":"strikethrough","rangeEnd":42,"rangeStart":0,"value":0,"valueType":"int"},{"name":"fontWeight","rangeEnd":42,"rangeStart":0,"value":400,"valueType":"int"},{"name":"fgColor","rangeEnd":42,"rangeStart":0,"value":"(255,255,255,255)","valueType":"color"},{"name":"fontItalic","rangeEnd":42,"rangeStart":0,"value":0,"valueType":"int"},{"name":"fontSize","rangeEnd":42,"rangeStart":0,"value":96,"valueType":"double"}],
                            "duration" : 0
                          }
                        ]
                      }
                    },
                    "attributes" : {
                      "autoRotateText" : true
                    },
                    "parameters" : {
                      "translation0" : -9.01518859564021e-11,
                      "translation1" : 177.999999999914
                    },
                    "effects" : [
                        {
                          "effectName" : "DropShadow",
                          "category" : "categoryVisualEffects",
                          "parameters" : {
                            "angle" : 5.49778714378214,
                            "blur" : 10.0,
                            "color-alpha" : 1.0,
                            "color-blue" : 0.1216,
                            "color-green" : 0.1216,
                            "color-red" : 0.1216,
                            "enabled" : 1,
                            "offset" : 10.0,
                            "opacity" : 0.4
                          }
                        }
                    ],
                    "start" : 0,
                    "duration" : 110,
                    "mediaStart" : 0,
                    "mediaDuration" : 110,
                    "scalar" : 1,
                    "metadata" : {
                      "WinSubProjectDisplayName" : "",
                      "clipSpeedAttribute" : false,
                      "default-HAlign" : "center",
                      "default-VAlign" : "center",
                      "default-scale0" : 1.0,
                      "default-scale1" : 1.0,
                      "default-translation0" : 0.0,
                      "default-translation1" : 0.0
                    },
                    "animationTracks" : {

                    }
                  },
                  {
                    "id" : 46,
                    "_type" : "Callout",
                    "def" : {
                      "kind" : "remix",
                      "shape" : "text",
                      "style" : "basic",
                      "height" : 90.0000000000317,
                      "width" : 740.000000000049,
                      "word-wrap" : 1.0,
                      "horizontal-alignment" : "center",
                      "text" : "拖到音头的位置",
                      "vertical-alignment" : "center",
                      "font" : {
                        "color-blue" : 1.0,
                        "color-green" : 1.0,
                        "color-red" : 1.0,
                        "size" : 96.0,
                        "tracking" : 0.0,
                        "name" : "Montserrat",
                        "weight" : "Regular"
                      },
                      "textAttributes" : {
                        "type" : "textAttributeList",
                        "keyframes" : [
                          {
                            "time" : 0,
                            "value" : [{"name":"fontItalic","rangeEnd":21,"rangeStart":0,"value":0,"valueType":"int"},{"name":"underline","rangeEnd":21,"rangeStart":0,"value":0,"valueType":"int"},{"name":"fontSize","rangeEnd":21,"rangeStart":0,"value":96,"valueType":"double"},{"name":"fontName","rangeEnd":21,"rangeStart":0,"value":"Microsoft YaHei","valueType":"string"},{"name":"fgColor","rangeEnd":21,"rangeStart":0,"value":"(255,255,255,255)","valueType":"color"},{"name":"strikethrough","rangeEnd":21,"rangeStart":0,"value":0,"valueType":"int"},{"name":"fontWeight","rangeEnd":21,"rangeStart":0,"value":400,"valueType":"int"}],
                            "duration" : 0
                          }
                        ]
                      }
                    },
                    "attributes" : {
                      "autoRotateText" : true
                    },
                    "parameters" : {
                      "translation0" : -9.01518859564021e-11,
                      "translation1" : 177.999999999914
                    },
                    "effects" : [
                        {
                          "effectName" : "DropShadow",
                          "category" : "categoryVisualEffects",
                          "parameters" : {
                            "angle" : 5.49778714378214,
                            "blur" : 10.0,
                            "color-alpha" : 1.0,
                            "color-blue" : 0.1216,
                            "color-green" : 0.1216,
                            "color-red" : 0.1216,
                            "enabled" : 1,
                            "offset" : 10.0,
                            "opacity" : 0.4
                          }
                        }
                    ],
                    "start" : 110,
                    "duration" : 125,
                    "mediaStart" : 110,
                    "mediaDuration" : 125,
                    "scalar" : 1,
                    "metadata" : {
                      "WinSubProjectDisplayName" : "",
                      "clipSpeedAttribute" : false,
                      "default-HAlign" : "center",
                      "default-VAlign" : "center",
                      "default-scale0" : 1.0,
                      "default-scale1" : 1.0,
                      "default-translation0" : 0.0,
                      "default-translation1" : 0.0
                    },
                    "animationTracks" : {

                    }
                  },
                  {
                    "id" : 47,
                    "_type" : "Callout",
                    "def" : {
                      "kind" : "remix",
                      "shape" : "text",
                      "style" : "basic",
                      "height" : 133.000000000071,
                      "width" : 740.000000000049,
                      "word-wrap" : 1.0,
                      "horizontal-alignment" : "center",
                      "text" : "在爆炸的时间点打个标记\r（作为演示用的参考）",
                      "vertical-alignment" : "center",
                      "font" : {
                        "color-blue" : 1.0,
                        "color-green" : 1.0,
                        "color-red" : 1.0,
                        "size" : 96.0,
                        "tracking" : 0.0,
                        "name" : "Montserrat",
                        "weight" : "Regular"
                      },
                      "textAttributes" : {
                        "type" : "textAttributeList",
                        "keyframes" : [
                          {
                            "time" : 0,
                            "value" : [{"name":"underline","rangeEnd":64,"rangeStart":0,"value":0,"valueType":"int"},{"name":"strikethrough","rangeEnd":64,"rangeStart":0,"value":0,"valueType":"int"},{"name":"fontWeight","rangeEnd":64,"rangeStart":0,"value":400,"valueType":"int"},{"name":"fontName","rangeEnd":64,"rangeStart":0,"value":"Microsoft YaHei","valueType":"string"},{"name":"fontItalic","rangeEnd":64,"rangeStart":0,"value":0,"valueType":"int"},{"name":"fontSize","rangeEnd":64,"rangeStart":0,"value":96,"valueType":"double"},{"name":"fgColor","rangeEnd":64,"rangeStart":0,"value":"(255,255,255,255)","valueType":"color"}],
                            "duration" : 0
                          }
                        ]
                      }
                    },
                    "attributes" : {
                      "autoRotateText" : true
                    },
                    "parameters" : {
                      "translation0" : 5.24504883969712e-11,
                      "translation1" : -135.077492564862
                    },
                    "effects" : [
                        {
                          "effectName" : "DropShadow",
                          "category" : "categoryVisualEffects",
                          "parameters" : {
                            "angle" : 5.49778714378214,
                            "blur" : 10.0,
                            "color-alpha" : 1.0,
                            "color-blue" : 0.1216,
                            "color-green" : 0.1216,
                            "color-red" : 0.1216,
                            "enabled" : 1,
                            "offset" : 10.0,
                            "opacity" : 0.4
                          }
                        }
                    ],
                    "start" : 357,
                    "duration" : 118,
                    "mediaStart" : 89,
                    "mediaDuration" : 118,
                    "scalar" : 1,
                    "metadata" : {
                      "WinSubProjectDisplayName" : "",
                      "clipSpeedAttribute" : false,
                      "default-HAlign" : "center",
                      "default-VAlign" : "center",
                      "default-scale0" : 1.0,
                      "default-scale1" : 1.0,
                      "default-translation0" : 0.0,
                      "default-translation1" : 0.0
                    },
                    "animationTracks" : {

                    }
                  },
                  {
                    "id" : 48,
                    "_type" : "Callout",
                    "def" : {
                      "kind" : "remix",
                      "shape" : "text",
                      "style" : "basic",
                      "height" : 113.000000000087,
                      "width" : 740.000000000049,
                      "word-wrap" : 1.0,
                      "horizontal-alignment" : "center",
                      "text" : "这时候拖动 Item\r视频画面会跟随 Snap Offset 变化",
                      "vertical-alignment" : "center",
                      "font" : {
                        "color-blue" : 1.0,
                        "color-green" : 1.0,
                        "color-red" : 1.0,
                        "size" : 96.0,
                        "tracking" : 0.0,
                        "name" : "Montserrat",
                        "weight" : "Regular"
                      },
                      "textAttributes" : {
                        "type" : "textAttributeList",
                        "keyframes" : [
                          {
                            "time" : 0,
                            "value" : [{"name":"strikethrough","rangeEnd":61,"rangeStart":0,"value":0,"valueType":"int"},{"name":"fontItalic","rangeEnd":61,"rangeStart":0,"value":0,"valueType":"int"},{"name":"fontSize","rangeEnd":61,"rangeStart":0,"value":96,"valueType":"double"},{"name":"fontName","rangeEnd":16,"rangeStart":0,"value":"Microsoft YaHei","valueType":"string"},{"name":"fontName","rangeEnd":43,"rangeStart":20,"value":"Microsoft YaHei","valueType":"string"},{"name":"fontName","rangeEnd":20,"rangeStart":16,"value":"Montserrat","valueType":"string"},{"name":"fontName","rangeEnd":61,"rangeStart":55,"value":"Microsoft YaHei","valueType":"string"},{"name":"fgColor","rangeEnd":61,"rangeStart":0,"value":"(255,255,255,255)","valueType":"color"},{"name":"underline","rangeEnd":61,"rangeStart":0,"value":0,"valueType":"int"},{"name":"fontName","rangeEnd":55,"rangeStart":43,"value":"Montserrat","valueType":"string"},{"name":"fontWeight","rangeEnd":61,"rangeStart":0,"value":400,"valueType":"int"}],
                            "duration" : 0
                          }
                        ]
                      }
                    },
                    "attributes" : {
                      "autoRotateText" : true
                    },
                    "parameters" : {
                      "translation0" : -9.01518859564021e-11,
                      "translation1" : 166.499999999859
                    },
                    "effects" : [
                        {
                          "effectName" : "DropShadow",
                          "category" : "categoryVisualEffects",
                          "parameters" : {
                            "angle" : 5.49778714378214,
                            "blur" : 10.0,
                            "color-alpha" : 1.0,
                            "color-blue" : 0.1216,
                            "color-green" : 0.1216,
                            "color-red" : 0.1216,
                            "enabled" : 1,
                            "offset" : 10.0,
                            "opacity" : 0.4
                          }
                        }
                    ],
                    "start" : 524,
                    "duration" : 187,
                    "mediaStart" : 0,
                    "mediaDuration" : 187,
                    "scalar" : 1,
                    "metadata" : {
                      "WinSubProjectDisplayName" : "",
                      "clipSpeedAttribute" : false,
                      "default-HAlign" : "center",
                      "default-VAlign" : "center",
                      "default-scale0" : 1.0,
                      "default-scale1" : 1.0,
                      "default-translation0" : 0.0,
                      "default-translation1" : 0.0
                    },
                    "animationTracks" : {

                    }
                  },
                  {
                    "id" : 49,
                    "_type" : "Callout",
                    "def" : {
                      "kind" : "remix",
                      "shape" : "text",
                      "style" : "basic",
                      "height" : 122.00000000009,
                      "width" : 740.000000000049,
                      "word-wrap" : 1.0,
                      "horizontal-alignment" : "center",
                      "text" : "这样当你对齐视频画面时\r音头的位置正好就和这个爆炸一致",
                      "vertical-alignment" : "center",
                      "font" : {
                        "color-blue" : 1.0,
                        "color-green" : 1.0,
                        "color-red" : 1.0,
                        "size" : 96.0,
                        "tracking" : 0.0,
                        "name" : "Montserrat",
                        "weight" : "Regular"
                      },
                      "textAttributes" : {
                        "type" : "textAttributeList",
                        "keyframes" : [
                          {
                            "time" : 0,
                            "value" : [{"name":"fontWeight","rangeEnd":79,"rangeStart":0,"value":400,"valueType":"int"},{"name":"underline","rangeEnd":79,"rangeStart":0,"value":0,"valueType":"int"},{"name":"fontSize","rangeEnd":79,"rangeStart":0,"value":96,"valueType":"double"},{"name":"fgColor","rangeEnd":79,"rangeStart":0,"value":"(255,255,255,255)","valueType":"color"},{"name":"fontName","rangeEnd":79,"rangeStart":0,"value":"Microsoft YaHei","valueType":"string"},{"name":"fontItalic","rangeEnd":79,"rangeStart":0,"value":0,"valueType":"int"},{"name":"strikethrough","rangeEnd":79,"rangeStart":0,"value":0,"valueType":"int"}],
                            "duration" : 0
                          }
                        ]
                      }
                    },
                    "attributes" : {
                      "autoRotateText" : true
                    },
                    "parameters" : {
                      "translation0" : -9.01518859564021e-11,
                      "translation1" : 158.577492564472
                    },
                    "effects" : [
                        {
                          "effectName" : "DropShadow",
                          "category" : "categoryVisualEffects",
                          "parameters" : {
                            "angle" : 5.49778714378214,
                            "blur" : 10.0,
                            "color-alpha" : 1.0,
                            "color-blue" : 0.1216,
                            "color-green" : 0.1216,
                            "color-red" : 0.1216,
                            "enabled" : 1,
                            "offset" : 10.0,
                            "opacity" : 0.4
                          }
                        }
                    ],
                    "start" : 711,
                    "duration" : 129,
                    "mediaStart" : 82,
                    "mediaDuration" : 129,
                    "scalar" : 1,
                    "metadata" : {
                      "WinSubProjectDisplayName" : "",
                      "clipSpeedAttribute" : false,
                      "default-HAlign" : "center",
                      "default-VAlign" : "center",
                      "default-scale0" : 1.0,
                      "default-scale1" : 1.0,
                      "default-translation0" : 0.0,
                      "default-translation1" : 0.0
                    },
                    "animationTracks" : {

                    }
                  },
                  {
                    "id" : 50,
                    "_type" : "Callout",
                    "def" : {
                      "kind" : "remix",
                      "shape" : "text",
                      "style" : "basic",
                      "height" : 113.000000000087,
                      "width" : 740.000000000049,
                      "word-wrap" : 1.0,
                      "horizontal-alignment" : "center",
                      "text" : "我们这次对齐刚落地的\r视频时间点试试",
                      "vertical-alignment" : "center",
                      "font" : {
                        "color-blue" : 1.0,
                        "color-green" : 1.0,
                        "color-red" : 1.0,
                        "size" : 96.0,
                        "tracking" : 0.0,
                        "name" : "Montserrat",
                        "weight" : "Regular"
                      },
                      "textAttributes" : {
                        "type" : "textAttributeList",
                        "keyframes" : [
                          {
                            "time" : 0,
                            "value" : [{"name":"fontName","rangeEnd":52,"rangeStart":0,"value":"Microsoft YaHei","valueType":"string"},{"name":"fontSize","rangeEnd":52,"rangeStart":0,"value":96,"valueType":"double"},{"name":"fontItalic","rangeEnd":52,"rangeStart":0,"value":0,"valueType":"int"},{"name":"underline","rangeEnd":52,"rangeStart":0,"value":0,"valueType":"int"},{"name":"fgColor","rangeEnd":52,"rangeStart":0,"value":"(255,255,255,255)","valueType":"color"},{"name":"fontWeight","rangeEnd":52,"rangeStart":0,"value":400,"valueType":"int"},{"name":"strikethrough","rangeEnd":52,"rangeStart":0,"value":0,"valueType":"int"}],
                            "duration" : 0
                          }
                        ]
                      }
                    },
                    "attributes" : {
                      "autoRotateText" : true
                    },
                    "parameters" : {
                      "translation0" : -9.01518859564021e-11,
                      "translation1" : 166.499999999859
                    },
                    "effects" : [
                        {
                          "effectName" : "DropShadow",
                          "category" : "categoryVisualEffects",
                          "parameters" : {
                            "angle" : 5.49778714378214,
                            "blur" : 10.0,
                            "color-alpha" : 1.0,
                            "color-blue" : 0.1216,
                            "color-green" : 0.1216,
                            "color-red" : 0.1216,
                            "enabled" : 1,
                            "offset" : 10.0,
                            "opacity" : 0.4
                          }
                        }
                    ],
                    "start" : 950,
                    "duration" : 134,
                    "mediaStart" : 10,
                    "mediaDuration" : 134,
                    "scalar" : 1,
                    "metadata" : {
                      "WinSubProjectDisplayName" : "",
                      "clipSpeedAttribute" : false,
                      "default-HAlign" : "center",
                      "default-VAlign" : "center",
                      "default-scale0" : 1.0,
                      "default-scale1" : 1.0,
                      "default-translation0" : 0.0,
                      "default-translation1" : 0.0
                    },
                    "animationTracks" : {

                    }
                  },
                  {
                    "id" : 51,
                    "_type" : "Callout",
                    "def" : {
                      "kind" : "remix",
                      "shape" : "text",
                      "style" : "basic",
                      "height" : 113.000000000087,
                      "width" : 740.000000000049,
                      "word-wrap" : 1.0,
                      "horizontal-alignment" : "center",
                      "text" : "音画一致 完美",
                      "vertical-alignment" : "center",
                      "font" : {
                        "color-blue" : 1.0,
                        "color-green" : 1.0,
                        "color-red" : 1.0,
                        "size" : 96.0,
                        "tracking" : 0.0,
                        "name" : "Montserrat",
                        "weight" : "Regular"
                      },
                      "textAttributes" : {
                        "type" : "textAttributeList",
                        "keyframes" : [
                          {
                            "time" : 0,
                            "value" : [{"name":"underline","rangeEnd":19,"rangeStart":0,"value":0,"valueType":"int"},{"name":"fontSize","rangeEnd":19,"rangeStart":0,"value":96,"valueType":"double"},{"name":"fontName","rangeEnd":19,"rangeStart":0,"value":"Microsoft YaHei","valueType":"string"},{"name":"fontItalic","rangeEnd":19,"rangeStart":0,"value":0,"valueType":"int"},{"name":"fgColor","rangeEnd":19,"rangeStart":0,"value":"(255,255,255,255)","valueType":"color"},{"name":"strikethrough","rangeEnd":19,"rangeStart":0,"value":0,"valueType":"int"},{"name":"fontWeight","rangeEnd":19,"rangeStart":0,"value":400,"valueType":"int"}],
                            "duration" : 0
                          }
                        ]
                      }
                    },
                    "attributes" : {
                      "autoRotateText" : true
                    },
                    "parameters" : {
                      "translation0" : -9.01518859564021e-11,
                      "translation1" : 166.499999999859
                    },
                    "effects" : [
                        {
                          "effectName" : "DropShadow",
                          "category" : "categoryVisualEffects",
                          "parameters" : {
                            "angle" : 5.49778714378214,
                            "blur" : 10.0,
                            "color-alpha" : 1.0,
                            "color-blue" : 0.1216,
                            "color-green" : 0.1216,
                            "color-red" : 0.1216,
                            "enabled" : 1,
                            "offset" : 10.0,
                            "opacity" : 0.4
                          }
                        }
                    ],
                    "start" : 1175,
                    "duration" : 70,
                    "mediaStart" : 43,
                    "mediaDuration" : 70,
                    "scalar" : 1,
                    "metadata" : {
                      "WinSubProjectDisplayName" : "",
                      "clipSpeedAttribute" : false,
                      "default-HAlign" : "center",
                      "default-VAlign" : "center",
                      "default-scale0" : 1.0,
                      "default-scale1" : 1.0,
                      "default-translation0" : 0.0,
                      "default-translation1" : 0.0
                    },
                    "animationTracks" : {

                    }
                  },
                  {
                    "id" : 52,
                    "_type" : "Callout",
                    "def" : {
                      "kind" : "remix",
                      "shape" : "text",
                      "style" : "basic",
                      "height" : 113.000000000087,
                      "width" : 740.000000000049,
                      "word-wrap" : 1.0,
                      "horizontal-alignment" : "center",
                      "text" : "再举个栗子\r这次我们对齐洛克人的子弹",
                      "vertical-alignment" : "center",
                      "font" : {
                        "color-blue" : 1.0,
                        "color-green" : 1.0,
                        "color-red" : 1.0,
                        "size" : 96.0,
                        "tracking" : 0.0,
                        "name" : "Montserrat",
                        "weight" : "Regular"
                      },
                      "textAttributes" : {
                        "type" : "textAttributeList",
                        "keyframes" : [
                          {
                            "time" : 0,
                            "value" : [{"name":"strikethrough","rangeEnd":52,"rangeStart":0,"value":0,"valueType":"int"},{"name":"fontSize","rangeEnd":52,"rangeStart":0,"value":96,"valueType":"double"},{"name":"fgColor","rangeEnd":52,"rangeStart":0,"value":"(255,255,255,255)","valueType":"color"},{"name":"fontWeight","rangeEnd":52,"rangeStart":0,"value":400,"valueType":"int"},{"name":"fontName","rangeEnd":52,"rangeStart":0,"value":"Microsoft YaHei","valueType":"string"},{"name":"fontItalic","rangeEnd":52,"rangeStart":0,"value":0,"valueType":"int"},{"name":"underline","rangeEnd":52,"rangeStart":0,"value":0,"valueType":"int"}],
                            "duration" : 0
                          }
                        ]
                      }
                    },
                    "attributes" : {
                      "autoRotateText" : true
                    },
                    "parameters" : {
                      "translation0" : -9.01518859564021e-11,
                      "translation1" : 166.499999999859
                    },
                    "effects" : [
                        {
                          "effectName" : "DropShadow",
                          "category" : "categoryVisualEffects",
                          "parameters" : {
                            "angle" : 5.49778714378214,
                            "blur" : 10.0,
                            "color-alpha" : 1.0,
                            "color-blue" : 0.1216,
                            "color-green" : 0.1216,
                            "color-red" : 0.1216,
                            "enabled" : 1,
                            "offset" : 10.0,
                            "opacity" : 0.4
                          }
                        }
                    ],
                    "start" : 1329,
                    "duration" : 134,
                    "mediaStart" : 10,
                    "mediaDuration" : 134,
                    "scalar" : 1,
                    "metadata" : {
                      "WinSubProjectDisplayName" : "",
                      "clipSpeedAttribute" : false,
                      "default-HAlign" : "center",
                      "default-VAlign" : "center",
                      "default-scale0" : 1.0,
                      "default-scale1" : 1.0,
                      "default-text-attributes" : "[{\"name\":\"fgColor\",\"rangeEnd\":82,\"rangeStart\":0,\"value\":\"(255,255,255,255)\",\"valueType\":\"color\"},{\"name\":\"fontName\",\"rangeEnd\":42,\"rangeStart\":31,\"value\":\"Montserrat\",\"valueType\":\"string\"},{\"name\":\"underline\",\"rangeEnd\":82,\"rangeStart\":0,\"value\":0,\"valueType\":\"int\"},{\"name\":\"fontSize\",\"rangeEnd\":82,\"rangeStart\":0,\"value\":96,\"valueType\":\"double\"},{\"name\":\"fontWeight\",\"rangeEnd\":82,\"rangeStart\":0,\"value\":400,\"valueType\":\"int\"},{\"name\":\"strikethrough\",\"rangeEnd\":82,\"rangeStart\":0,\"value\":0,\"valueType\":\"int\"},{\"name\":\"fontItalic\",\"rangeEnd\":82,\"rangeStart\":0,\"value\":0,\"valueType\":\"int\"},{\"name\":\"fontName\",\"rangeEnd\":31,\"rangeStart\":0,\"value\":\"Microsoft YaHei\",\"valueType\":\"string\"},{\"name\":\"fontName\",\"rangeEnd\":82,\"rangeStart\":42,\"value\":\"Microsoft YaHei\",\"valueType\":\"string\"}]",
                      "default-translation0" : 0.0,
                      "default-translation1" : 0.0
                    },
                    "animationTracks" : {

                    }
                  },
                  {
                    "id" : 53,
                    "_type" : "Callout",
                    "def" : {
                      "kind" : "remix",
                      "shape" : "text",
                      "style" : "basic",
                      "height" : 417.00000000023,
                      "width" : 772.000000000181,
                      "word-wrap" : 1.0,
                      "horizontal-alignment" : "left",
                      "text" : "一句话总结：\r \r将 Snap Offset 设定在你需要对齐的音头上，然后移动音频块直到视频画面与预期一致即可。",
                      "vertical-alignment" : "center",
                      "font" : {
                        "color-blue" : 1.0,
                        "color-green" : 1.0,
                        "color-red" : 1.0,
                        "size" : 96.0,
                        "tracking" : 0.0,
                        "name" : "Montserrat",
                        "weight" : "Regular"
                      },
                      "textAttributes" : {
                        "type" : "textAttributeList",
                        "keyframes" : [
                          {
                            "time" : 0,
                            "value" : [{"name":"fontName","rangeEnd":25,"rangeStart":0,"value":"Microsoft YaHei","valueType":"string"},{"name":"strikethrough","rangeEnd":139,"rangeStart":0,"value":0,"valueType":"int"},{"name":"fontItalic","rangeEnd":139,"rangeStart":0,"value":0,"valueType":"int"},{"name":"fontSize","rangeEnd":20,"rangeStart":18,"value":13,"valueType":"double"},{"name":"fontWeight","rangeEnd":139,"rangeStart":0,"value":400,"valueType":"int"},{"name":"fgColor","rangeEnd":139,"rangeStart":0,"value":"(255,255,255,255)","valueType":"color"},{"name":"underline","rangeEnd":139,"rangeStart":0,"value":0,"valueType":"int"},{"name":"fontName","rangeEnd":37,"rangeStart":25,"value":"Montserrat","valueType":"string"},{"name":"fontSize","rangeEnd":139,"rangeStart":20,"value":50,"valueType":"double"},{"name":"fontName","rangeEnd":139,"rangeStart":37,"value":"Microsoft YaHei","valueType":"string"},{"name":"fontSize","rangeEnd":18,"rangeStart":0,"value":50,"valueType":"double"}],
                            "duration" : 0
                          }
                        ]
                      }
                    },
                    "attributes" : {
                      "autoRotateText" : true
                    },
                    "parameters" : {
                      "translation0" : 15.9999999999098,
                      "translation1" : 15.49999999969
                    },
                    "effects" : [
                        {
                          "effectName" : "DropShadow",
                          "category" : "categoryVisualEffects",
                          "parameters" : {
                            "angle" : 5.49778714378214,
                            "blur" : 10.0,
                            "color-alpha" : 1.0,
                            "color-blue" : 0.1216,
                            "color-green" : 0.1216,
                            "color-red" : 0.1216,
                            "enabled" : 1,
                            "offset" : 10.0,
                            "opacity" : 0.4
                          }
                        }
                    ],
                    "start" : 1779,
                    "duration" : 134,
                    "mediaStart" : 10,
                    "mediaDuration" : 134,
                    "scalar" : 1,
                    "metadata" : {
                      "WinSubProjectDisplayName" : "",
                      "clipSpeedAttribute" : false,
                      "default-HAlign" : "center",
                      "default-VAlign" : "center",
                      "default-scale0" : 1.0,
                      "default-scale1" : 1.0,
                      "default-text-attributes" : "[{\"name\":\"fgColor\",\"rangeEnd\":82,\"rangeStart\":0,\"value\":\"(255,255,255,255)\",\"valueType\":\"color\"},{\"name\":\"fontName\",\"rangeEnd\":42,\"rangeStart\":31,\"value\":\"Montserrat\",\"valueType\":\"string\"},{\"name\":\"underline\",\"rangeEnd\":82,\"rangeStart\":0,\"value\":0,\"valueType\":\"int\"},{\"name\":\"fontSize\",\"rangeEnd\":82,\"rangeStart\":0,\"value\":96,\"valueType\":\"double\"},{\"name\":\"fontWeight\",\"rangeEnd\":82,\"rangeStart\":0,\"value\":400,\"valueType\":\"int\"},{\"name\":\"strikethrough\",\"rangeEnd\":82,\"rangeStart\":0,\"value\":0,\"valueType\":\"int\"},{\"name\":\"fontItalic\",\"rangeEnd\":82,\"rangeStart\":0,\"value\":0,\"valueType\":\"int\"},{\"name\":\"fontName\",\"rangeEnd\":31,\"rangeStart\":0,\"value\":\"Microsoft YaHei\",\"valueType\":\"string\"},{\"name\":\"fontName\",\"rangeEnd\":82,\"rangeStart\":42,\"value\":\"Microsoft YaHei\",\"valueType\":\"string\"}]",
                      "default-translation0" : 0.0,
                      "default-translation1" : 0.0
                    },
                    "animationTracks" : {

                    }
                  },
                  {
                    "id" : 54,
                    "_type" : "AMFile",
                    "src" : 2,
                    "trackNumber" : 1,
                    "attributes" : {
                      "ident" : "录制日期 12-03-18 1",
                      "sampleRate" : 44100,
                      "bitDepth" : 16,
                      "gain" : 1.0,
                      "mixToMono" : false
                    },
                      "channelNumber" : "0,1",
                    "effects" : [

                    ],
                    "start" : 2288,
                    "duration" : 137,
                    "mediaStart" : 1739,
                    "mediaDuration" : 137,
                    "scalar" : 1,
                    "metadata" : {
                      "WinSubProjectDisplayName" : "",
                      "clipSpeedAttribute" : false
                    },
                    "animationTracks" : {

                    }
                  }
                ],
                "transitions" : [
                  {
                    "name" : "Fade",
                    "duration" : 19,
                    "trivial" : false,
                    "useAudioPreRoll" : true,
                    "useVisualPreRoll" : true,
                    "rightMedia" : 47
                  },
                  {
                    "name" : "Fade",
                    "duration" : 30,
                    "trivial" : false,
                    "useAudioPreRoll" : true,
                    "useVisualPreRoll" : true,
                    "leftMedia" : 47
                  },
                  {
                    "name" : "Fade",
                    "duration" : 30,
                    "trivial" : false,
                    "useAudioPreRoll" : true,
                    "useVisualPreRoll" : true,
                    "rightMedia" : 50
                  },
                  {
                    "name" : "Fade",
                    "duration" : 30,
                    "trivial" : false,
                    "useAudioPreRoll" : true,
                    "useVisualPreRoll" : true,
                    "leftMedia" : 50
                  },
                  {
                    "name" : "Fade",
                    "duration" : 30,
                    "trivial" : false,
                    "useAudioPreRoll" : true,
                    "useVisualPreRoll" : true,
                    "rightMedia" : 51
                  },
                  {
                    "name" : "Fade",
                    "duration" : 30,
                    "trivial" : false,
                    "useAudioPreRoll" : true,
                    "useVisualPreRoll" : true,
                    "leftMedia" : 51
                  },
                  {
                    "name" : "Fade",
                    "duration" : 30,
                    "trivial" : false,
                    "useAudioPreRoll" : true,
                    "useVisualPreRoll" : true,
                    "rightMedia" : 52
                  },
                  {
                    "name" : "Fade",
                    "duration" : 30,
                    "trivial" : false,
                    "useAudioPreRoll" : true,
                    "useVisualPreRoll" : true,
                    "leftMedia" : 52
                  },
                  {
                    "name" : "Fade",
                    "duration" : 30,
                    "trivial" : false,
                    "useAudioPreRoll" : true,
                    "useVisualPreRoll" : true,
                    "rightMedia" : 53
                  },
                  {
                    "name" : "Fade",
                    "duration" : 30,
                    "trivial" : false,
                    "useAudioPreRoll" : true,
                    "useVisualPreRoll" : true,
                    "leftMedia" : 53
                  }
                ]
              },
              {
                "trackIndex" : 4,
                "medias" : [
                ]
              },
              {
                "trackIndex" : 5,
                "medias" : [
                ]
              }
            ]
          }
        }
      ]
    },
    "trackAttributes" : [
      {
        "ident" : "",
        "audioMuted" : false,
        "videoHidden" : false,
        "metadata" : {
          "IsLocked" : "False",
          "WinTrackHeight" : "56"
        }
      },
      {
        "ident" : "",
        "audioMuted" : false,
        "videoHidden" : false,
        "metadata" : {
          "IsLocked" : "False",
          "WinTrackHeight" : "56"
        }
      },
      {
        "ident" : "",
        "audioMuted" : false,
        "videoHidden" : false,
        "metadata" : {
          "IsLocked" : "False",
          "WinTrackHeight" : "56"
        }
      },
      {
        "ident" : "",
        "audioMuted" : false,
        "videoHidden" : false,
        "metadata" : {
          "IsLocked" : "False",
          "WinTrackHeight" : "56"
        }
      },
      {
        "ident" : "",
        "audioMuted" : false,
        "videoHidden" : false,
        "metadata" : {
          "IsLocked" : "False",
          "WinTrackHeight" : "56"
        }
      },
      {
        "ident" : "",
        "audioMuted" : false,
        "videoHidden" : false,
        "metadata" : {
          "IsLocked" : "False",
          "WinTrackHeight" : "56"
        }
      }
    ],
    "captionAttributes" : {
      "enabled" : true,
      "fontName" : "Arial",
      "fontSize" : 27,
      "backgroundColor" : [ 0, 0, 0, 191],
      "foregroundColor" : [ 255, 255, 255, 255],
      "lang" : "en",
      "alignment" : 0,
      "defaultFontSize" : true,
      "opacity" : 0.5,
      "backgroundEnabled" : true,
      "backgroundOnlyAroundText" : true
    },
    "backgroundColor" : [ 0, 0, 0, 255]
  },
  "metadata" : {
    "AutoSaveFile" : "C:\\Users\\hln4446\\AppData\\Local\\TechSmith\\Camtasia Studio\\18.0\\Auto-Saves\\181203_REAPER 吸附偏移设置9148fd4.autosave.tscproj",
    "CanvasZoom" : 150,
    "Date" : "2018-12-03 01:40:25 下午",
    "Fit" : 0,
    "IsAutoSave" : "0",
    "Language" : "ENU",
    "ProfileName" : "",
    "ProjectDimensionsChanged" : "1",
    "Title" : "181203_REAPER 吸附偏移设置",
    "audioNarrationNotes" : "",
    "calloutStyle" : "Basic",
    "canvasDetached" : "False",
    "canvasPositionHeight" : "0",
    "canvasPositionLeft" : "0",
    "canvasPositionTop" : "0",
    "canvasPositionWidth" : "0"
  }
}
